<svg id="Capa_1" enable-background="new 0 0 512 512" height="512" viewBox="0 0 512 512" width="512" xmlns="http://www.w3.org/2000/svg"><g><g><g><g><g><g id="XMLID_1456_"><g id="XMLID_1457_"><g id="XMLID_1458_"><g id="XMLID_1459_"><g id="XMLID_1460_"><g id="XMLID_1461_"><g id="XMLID_1462_"><g id="XMLID_1463_"><g id="XMLID_1464_"><g id="XMLID_1465_"><g id="XMLID_1466_"><g id="XMLID_1467_"><g id="XMLID_1468_"><g id="XMLID_1469_"><g><path d="m72.49 434.5c-44.85-46.12-72.49-109.08-72.49-178.5 0-141.38 114.62-256 256-256s256 114.62 256 256c0 69.42-27.64 132.39-72.5 178.51z" fill="#ff40c9"/></g></g></g></g></g></g></g></g></g></g></g></g></g></g></g></g></g></g></g><path d="m512 256c0-21.008-2.531-41.426-7.304-60.965l-132.586-132.585-13.811 6.94-37.87-37.87-16.177 32.873-48.252-48.253-91.205 208.535 91.633 91.633-17.313 72.34 29.577 45.858 170.808.004c44.86-46.12 72.5-109.09 72.5-178.51z" fill="#e200ad"/><g><path d="m212.001 254.515h87.994v93.318h-87.994z" fill="#ffb985"/><path d="m255.998 254.517h43.997v93.318h-43.997z" fill="#f9a267"/><path d="m338.879 166.623c-3.501-53.156-46.498-72.8-82.881-72.8s-79.38 19.645-82.881 72.8c-9.408 1.82-16.092 14.16-15.04 24.137l1.613 22.706c1.104 10.478 10.314 18.127 20.464 16.988l1.751-.19c7.106 19.058 15.583 32.295 24.491 41.583 17.178 17.92 35.969 21.18 49.603 23.336 13.634-2.156 32.425-5.416 49.603-23.336 8.908-9.288 17.385-22.525 24.491-41.583l1.751.19c10.15 1.138 19.36-6.511 20.464-16.988l1.613-22.706c1.05-9.977-5.633-22.318-15.042-24.137z" fill="#ffd3ab"/><path d="m353.922 190.761-1.613 22.7c-1.11 10.482-10.321 18.128-20.471 16.989l-1.745-.19c-7.105 19.057-15.586 32.3-24.493 41.587-17.179 17.919-35.971 21.182-49.602 23.336v-201.359c36.379 0 79.379 19.646 82.879 72.795 9.411 1.822 16.098 14.163 15.045 24.142z" fill="#ffb985"/></g><g><path d="m428.07 445.55c-12.38 11.25-25.88 21.3-40.29 29.96-38.5 23.17-83.59-11.109-131.78-11.109-48.2 0-93.29 34.27-131.78 11.109-14.89-8.95-28.79-19.38-41.5-31.07v-65.09c0-27.89 95.224-50.5 95.224-50.5h116.556c11.41 0 22.48 1.42 33.06 4.09 12.23 3.08 23.79 7.84 34.43 14 35.28 20.45 60.43 56.45 66.08 98.61z" fill="#ffd3ab"/><path d="m429.28 392.589v51.851c-.4.37-.8.74-1.21 1.11-12.384 11.245-25.873 21.294-40.287 29.965-38.499 23.16-83.587-11.115-131.783-11.115v-135.55h78.052c27.89 0 95.228 35.849 95.228 63.739z" fill="#ffb985"/><path d="m363.35 347.83v140.64c-9.47 4.38-19.25 8.2-29.3 11.41-24.61 7.87-50.83 12.12-78.05 12.12s-53.45-4.25-78.06-12.12c-10.47-3.35-20.66-7.36-30.5-11.98v-140.07l108.56 30.12z" fill="#fff"/><path d="m363.35 347.83v140.64c-9.47 4.38-19.25 8.2-29.3 11.41-24.61 7.87-50.83 12.12-78.05 12.12v-134.05z" fill="#dbdbdb"/><path d="m256 409.657 11.468 23.236 25.643 3.727-18.556 18.087 4.381 25.539-22.936-12.058-22.936 12.058 4.381-25.539-18.556-18.087 25.643-3.727z" fill="#ffc840"/><path d="m274.552 454.707 4.382 25.541-22.934-12.063v-58.532l11.471 23.239 25.643 3.725z" fill="#f47f00"/></g><path d="m329.665 75.604-9.236-44.079-33.807 20.494-30.624-35.876-30.624 35.876-33.807-20.494-9.235 44.079-42.442-13.149 35.326 124.974 18.185 8.631 10.278-72.504 17.482 13.811 16.165-13.811 18.672 13.811 18.673-13.811 16.164 13.811 17.482-13.811 10.279 72.504 18.185-8.631 35.326-124.974z" fill="#4c4c4c"/><path d="m372.11 62.45-35.33 124.98-18.18 8.63-10.28-72.5-17.48 13.81-16.17-13.81-18.67 13.81v-121.23l30.62 35.88 33.81-20.5 9.23 44.08z" fill="#2b2b2b"/><g><path d="m177.94 328.85v171.03c-40.45-12.94-76.53-35.66-105.45-65.38v-68.146c0-26.717 23.358-47.422 49.881-44.218z" fill="#4c4c4c"/><path d="m439.5 366.354v68.156c-28.92 29.72-65 52.44-105.45 65.37v-171.03l55.569-6.714c26.523-3.204 49.881 17.502 49.881 44.218z" fill="#2b2b2b"/></g></g></svg>